# xmcd
#
# Track frame offsets:
#	150
#	9063
#	20202
#	31693
#	43045
#	54411
#	66790
#	79275
#	91812
#	101597
#	112414
#	123310
#
# Disc length: 1820 seconds
#
# Revision: 1
# Processed by: cddbd v1.5.2PL0 Copyright (c) Steve Scherf et al.
# Submitted via: audiograbber 1.83.01
#
DISCID=94071a0c
DTITLE=George Jones - Love Bug
DYEAR=1966
DGENRE=Country
TTITLE0=Love Bug
TTITLE1=Six Days On The Road
TTITLE2=Bridge Washed Out
TTITLE3=Talk Back Trembling Lips
TTITLE4=Don't Let Me Cross Over
TTITLE5=Blue Side Of Lonesome
TTITLE6=Take Me
TTITLE7=Don't Be Angry
TTITLE8=Unfaithful One
TTITLE9=King Of The Road
TTITLE10=All My Friends Are Gonna Be Strangers
TTITLE11=Things Have Gone To Pieces
EXTD=
EXTT0=
EXTT1=
EXTT2=
EXTT3=
EXTT4=
EXTT5=
EXTT6=
EXTT7=
EXTT8=
EXTT9=
EXTT10=
EXTT11=
PLAYORDER=
